<?xml version="1.0" encoding="UTF-8" standalone="no"?>
<svg
   xmlns:dc="http://purl.org/dc/elements/1.1/"
   xmlns:cc="http://creativecommons.org/ns#"
   xmlns:rdf="http://www.w3.org/1999/02/22-rdf-syntax-ns#"
   xmlns:svg="http://www.w3.org/2000/svg"
   xmlns="http://www.w3.org/2000/svg"
   xmlns:sodipodi="http://sodipodi.sourceforge.net/DTD/sodipodi-0.dtd"
   xmlns:inkscape="http://www.inkscape.org/namespaces/inkscape"
   enable-background="new 0 0 55 55"
   height="55px"
   id="Layer_1"
   version="1.1"
   viewBox="0 0 55 55"
   width="55px"
   x="0px"
   xml:space="preserve"
   y="0px"
   sodipodi:docname="computer.svg"
   inkscape:version="0.92.2 (5c3e80d, 2017-08-06)"><metadata
     id="metadata2267"><rdf:RDF><cc:Work
         rdf:about=""><dc:format>image/svg+xml</dc:format><dc:type
           rdf:resource="http://purl.org/dc/dcmitype/StillImage" /></cc:Work></rdf:RDF></metadata><defs
     id="defs2265" /><sodipodi:namedview
     pagecolor="#ffffff"
     bordercolor="#666666"
     borderopacity="1"
     objecttolerance="10"
     gridtolerance="10"
     guidetolerance="10"
     inkscape:pageopacity="0"
     inkscape:pageshadow="2"
     inkscape:window-width="1366"
     inkscape:window-height="705"
     id="namedview2263"
     showgrid="false"
     inkscape:measure-start="23.3345,28.5936"
     inkscape:measure-end="23.3787,23.909"
     inkscape:zoom="5.6568543"
     inkscape:cx="40.871537"
     inkscape:cy="23.825619"
     inkscape:window-x="-8"
     inkscape:window-y="-8"
     inkscape:window-maximized="1"
     inkscape:current-layer="Layer_1" /><g
     display="block"
     id="computer"
     style="stroke-width:2;stroke-miterlimit:4;stroke-dasharray:none"><path
       d="   M51.322,41.549h0.002l-0.022-0.018c-0.15-0.109-12.64-7.878-12.64-7.878V9.734c0-1.618-1.31-2.932-2.929-2.932h-30.9   c-1.619,0-2.931,1.314-2.931,2.932v26.313c0,1.096,0.608,2.037,1.498,2.541l-0.02,0.004l14.603,9.102   c0.691,0.436,1.528,0.688,2.428,0.688h28.212c2.352,0,4.278-1.733,4.278-3.85C52.902,43.33,52.283,42.257,51.322,41.549z"
       fill="#ffffff"
       id="module-about_x5F_my_x5F_xo"
       stroke="#010101"
       stroke-linejoin="round"
       stroke-width="3.4867"
       style="stroke-width:2;stroke-miterlimit:4;stroke-dasharray:none" /><path
       d="M7.604,13.446c0-0.616,0.504-1.12,1.12-1.12h23.117c0.615,0,1.118,0.503,1.118,1.12v16.499   c0,0.614-0.503,1.122-1.118,1.122H8.723c-0.615,0-1.12-0.508-1.12-1.122L7.604,13.446L7.604,13.446z"
       fill="#010101"
       id="path2259"
       style="stroke-width:2;stroke-miterlimit:4;stroke-dasharray:none" /></g><g
     id="g6359"
     transform="matrix(0.03573947,0,0,0.03573954,11.847147,8.554705)"
     style="fill:#000000;fill-opacity:1;stroke:#ffffff;stroke-opacity:1"><circle
       r="51.220825"
       cy="134.2677"
       cx="331.38321"
       transform="matrix(0.969697,0,0,0.969697,-90.879133,125.06999)"
       id="path2307"
       style="fill:#000000;fill-opacity:1;stroke:#ffffff;stroke-width:20.62502098;stroke-linecap:round;stroke-linejoin:round;stroke-miterlimit:4;stroke-dasharray:none;stroke-dashoffset:0;stroke-opacity:1" /><path
       sodipodi:nodetypes="ccccccccccccc"
       id="path5343"
       d="m 290.55846,302.47333 -58.81513,59.20058 -59.39461,-59.40024 c -25.19828,-24.48771 -62.7038,13.33148 -38.1941,37.98719 l 60.04451,58.9817 -59.73639,59.42563 c -24.83976,24.97559 12.91592,63.26505 37.66786,37.75282 l 59.95799,-59.28294 58.75912,59.21065 c 24.50656,25.09065 62.43116,-13.00322 37.87956,-37.85772 l -59.24184,-59.02842 58.87574,-59.14782 c 25.1689,-25.18348 -13.0489,-62.75154 -37.80271,-37.84143 z"
       style="fill:#000000;fill-opacity:1;stroke:#ffffff;stroke-width:20.00002098;stroke-linecap:round;stroke-linejoin:miter;stroke-miterlimit:4;stroke-dasharray:none;stroke-dashoffset:0;stroke-opacity:1"
       inkscape:connector-curvature="0" /></g></svg>