<?xml version="1.0" encoding="UTF-8" standalone="no"?>
<svg
   xmlns:dc="http://purl.org/dc/elements/1.1/"
   xmlns:cc="http://creativecommons.org/ns#"
   xmlns:rdf="http://www.w3.org/1999/02/22-rdf-syntax-ns#"
   xmlns:svg="http://www.w3.org/2000/svg"
   xmlns="http://www.w3.org/2000/svg"
   xmlns:sodipodi="http://sodipodi.sourceforge.net/DTD/sodipodi-0.dtd"
   xmlns:inkscape="http://www.inkscape.org/namespaces/inkscape"
   width="1957"
   height="2500"
   viewBox="0 0 256 327"
   preserveAspectRatio="xMinYMin meet"
   version="1.1"
   id="svg3719"
   sodipodi:docname="raspberry-pi.svg"
   inkscape:version="0.92.2 (5c3e80d, 2017-08-06)">
  <metadata
     id="metadata3725">
    <rdf:RDF>
      <cc:Work
         rdf:about="">
        <dc:format>image/svg+xml</dc:format>
        <dc:type
           rdf:resource="http://purl.org/dc/dcmitype/StillImage" />
        <dc:title />
      </cc:Work>
    </rdf:RDF>
  </metadata>
  <defs
     id="defs3723" />
  <sodipodi:namedview
     pagecolor="#ffffff"
     bordercolor="#666666"
     borderopacity="1"
     objecttolerance="10"
     gridtolerance="10"
     guidetolerance="10"
     inkscape:pageopacity="0"
     inkscape:pageshadow="2"
     inkscape:window-width="1366"
     inkscape:window-height="705"
     id="namedview3721"
     showgrid="false"
     inkscape:zoom="0.15160369"
     inkscape:cx="-650.24697"
     inkscape:cy="1402.4083"
     inkscape:window-x="-8"
     inkscape:window-y="-8"
     inkscape:window-maximized="1"
     inkscape:current-layer="svg3719" />
  <path
     style="stroke-width:7.64453125"
     d="M 531.96289 0.00390625 C 531.21611 -0.0020511094 530.46659 0.0078386227 529.71289 0.03125 L 529.70703 0.041015625 C 517.08268 0.44009479 503.48899 5.1133368 488.06445 17.277344 C 450.26225 2.6992222 413.58427 -2.369262 380.79688 27.314453 C 330.16713 20.747801 313.71628 34.30082 301.24805 50.125 C 290.1329 49.895664 218.08246 38.696344 185.03516 87.988281 C 102.00026 78.165059 75.756914 136.8291 105.49414 191.54102 C 88.530926 217.79234 70.957356 243.73072 110.61719 293.78711 C 96.58947 321.65907 105.28863 351.89977 138.33594 388.49414 C 129.62117 427.68765 146.75972 455.33093 177.51367 476.88086 C 173.83533 511.1485 194.93756 536.23638 214.93164 552.79297 L -84.089844 1077.8789 L 214.94531 552.80469 C 226.23561 562.15189 237.17093 568.78878 243.08789 572.79688 C 249.38698 604.04007 262.51329 633.53194 325.25195 649.83008 C 335.60265 696.40056 373.30629 704.44318 409.82422 714.21289 C 289.14 784.36675 185.64827 876.65967 186.35156 1103.1289 L 168.66797 1134.6621 C 30.286661 1218.8131 -94.210457 1489.2914 100.48047 1709.1328 C 113.19332 1777.9489 134.52075 1827.3797 153.50977 1882.084 C 181.9092 2102.5217 367.26573 2205.7448 416.16016 2217.9531 C 487.79706 2272.5198 564.09704 2324.297 667.35938 2360.5703 C 764.6819 2460.9507 870.13034 2499.2115 976.15234 2499.1504 C 977.71183 2499.1504 1192.3184 2460.9583 1289.6562 2360.5703 C 1392.9034 2324.297 1469.2033 2272.5198 1540.8555 2217.9531 C 1589.7346 2205.7448 1775.0908 2102.5217 1803.4902 1882.084 C 1822.4793 1827.3797 1843.8068 1777.9489 1856.5273 1709.1328 C 2051.203 1489.2684 1926.7116 1218.7838 1788.3379 1134.6328 L 1770.627 1103.0977 C 1771.3302 876.6513 1667.8385 784.35275 1547.1543 714.18359 C 1583.6646 704.41388 1621.3814 696.37127 1631.7168 649.80078 C 1694.4555 633.495 1707.5894 604.00883 1713.8809 572.76562 C 1730.286 561.65812 1785.2117 530.476 1779.4707 476.84961 C 1810.2094 455.29968 1827.3572 427.65071 1818.6348 388.46484 C 1851.6897 351.87047 1860.3812 321.62765 1846.3535 293.74805 C 1886.0286 243.72223 1868.4227 217.78452 1851.4824 191.5332 C 1881.2044 136.82129 1854.9756 78.149602 1771.9102 87.980469 C 1738.8858 38.68853 1666.8449 49.880039 1655.6992 50.109375 C 1643.2386 34.29284 1626.7861 20.739988 1576.1562 27.306641 C 1543.3689 -2.377075 1506.7062 2.6837656 1468.8887 17.269531 C 1423.9847 -18.162871 1394.2777 10.235996 1360.3359 20.976562 C 1305.968 3.2106721 1293.5303 27.544027 1266.8203 37.458984 C 1207.5293 24.929598 1189.5124 52.204835 1161.0977 80.994141 L 1128.0273 80.335938 C 1038.6016 133.03734 994.17156 240.3509 978.42383 295.52148 C 962.67609 240.34326 918.34598 133.02969 828.93555 80.335938 L 795.87305 80.994141 C 767.41246 52.204835 749.40036 24.929598 690.10938 37.458984 C 663.39173 27.544027 651.00752 3.2106721 596.59375 20.976562 C 575.01372 14.148563 555.11296 0.18858439 531.96289 0.00390625 z M 1429.4434 63.341797 C 1417.0286 78.692016 1399.6758 93.684379 1418.0762 111.32031 C 1443.4407 95.243863 1468.9582 79.182648 1529.1895 67.761719 C 1515.6128 83.119582 1487.5497 98.483934 1504.5664 113.8418 C 1536.4059 101.49588 1571.6397 92.530312 1610.6191 87.332031 C 1591.9512 102.91923 1576.3869 118.18514 1591.6836 130.25586 C 1625.7629 119.61467 1672.6994 105.28104 1718.5742 117.62695 L 1689.5332 147.30273 C 1686.3149 151.27025 1757.4693 150.39029 1804.4297 151.08594 C 1787.2906 175.25795 1769.8168 198.5898 1759.6113 240.09961 C 1764.2668 244.88509 1787.5446 242.23243 1809.4844 240.09961 C 1786.9865 288.19136 1747.8992 300.33108 1738.7793 320.91016 C 1752.5242 331.4749 1771.5967 328.72297 1792.4434 321.53711 C 1776.2446 355.41767 1742.2657 378.63348 1715.4258 406.13086 C 1722.2141 411.02336 1734.0623 413.93536 1762.1406 410.54883 C 1737.3418 437.31233 1707.376 461.77638 1671.8672 483.77734 C 1678.151 491.15432 1699.7769 490.86231 1719.8438 491.35156 C 1687.6756 523.31335 1646.2724 539.88713 1607.4688 560.79492 C 1626.8094 574.21107 1640.6379 571.078 1655.4453 570.89453 C 1628.0091 593.78226 1581.3469 605.69219 1538.0254 619.50586 C 1546.2662 632.50156 1554.5003 636.0549 1572.1133 639.70898 C 1526.269 665.46341 1460.595 653.69159 1442.0723 666.85547 C 1446.5367 679.79766 1459.1504 688.22875 1474.2637 695.26172 C 1400.4481 699.61146 1198.5775 692.53349 1159.8809 537.43359 C 1235.4329 453.15225 1373.3476 354.24079 1610.5352 231.91992 C 1425.9869 294.63217 1259.467 378.21696 1120.1074 493.24805 C 956.23925 415.79366 1069.2018 220.43837 1149.1406 142.87695 C 1153.1999 163.3643 1157.7871 176.30664 1163.0312 180.12891 C 1189.0609 151.79827 1210.3282 122.7936 1243.8418 95.533203 C 1243.9488 111.54085 1235.8837 128.91784 1255.8359 141.62305 C 1273.8006 117.0841 1298.0872 95.181512 1330.3242 76.597656 C 1314.7982 103.78161 1327.6562 112.04641 1336.0117 123.31445 C 1360.6348 101.87919 1384.0272 80.159766 1429.4434 63.341797 z M 532.91602 63.357422 C 578.33218 80.175391 601.72462 101.89481 626.34766 123.33008 C 634.69548 112.06204 647.56103 103.79723 632.02734 76.613281 C 664.27198 95.197137 688.55879 117.09973 706.52344 141.63867 C 726.47566 128.93346 718.41055 111.56412 718.51758 95.548828 C 752.0312 122.80923 773.2985 151.81959 799.32812 180.14258 C 804.57227 176.32031 809.15755 163.37814 813.2168 142.89844 C 893.15566 220.45221 1006.1201 415.80928 842.25195 493.26367 C 702.87761 378.31402 536.4352 294.73815 351.99219 232.03516 C 589.07232 354.28721 726.92518 453.19423 802.46094 537.43359 C 763.76432 692.53349 561.88786 699.61146 488.07227 695.26172 C 503.1855 688.22875 515.79943 679.79766 520.27148 666.85547 C 501.74879 653.69159 436.07455 665.46341 390.22266 639.70898 C 407.83566 636.0549 416.07739 632.50156 424.31055 619.50586 C 380.99663 605.69219 334.33449 593.78226 306.89062 570.89453 C 321.69808 571.078 335.52652 574.21107 354.86719 560.79492 C 316.07119 539.88713 274.66819 523.31335 242.5 491.35156 C 262.55925 490.86231 284.18511 491.15432 290.47656 483.77734 C 254.96771 461.77638 225.00198 437.31233 200.20312 410.54883 C 228.27384 413.93536 240.12962 411.02336 246.91797 406.13086 C 220.07038 378.63348 186.09915 355.41767 169.90039 321.53711 C 190.73938 328.72297 209.81177 331.4749 223.55664 320.91016 C 214.43671 300.33108 175.35706 288.19136 152.85156 240.09961 C 174.79901 242.23243 198.06909 244.88509 202.72461 240.09961 C 192.54209 198.60509 175.06677 175.27357 157.92773 151.10156 C 204.88809 150.40591 276.04452 151.28587 272.82617 147.31836 L 243.7832 117.64844 C 289.65804 105.29488 336.59646 119.62834 370.67578 130.26953 C 385.97249 118.19882 370.40037 102.9329 351.73242 87.345703 C 390.71953 92.551629 425.94585 101.5115 457.79297 113.85742 C 474.80205 98.499559 446.74661 83.135207 433.16992 67.777344 C 493.40118 79.198273 518.91848 95.257535 544.27539 111.33398 C 562.67578 93.698051 545.33073 78.707641 532.91602 63.357422 z M 971.40234 702.16602 C 973.44542 702.16906 975.491 702.19673 977.53711 702.25 L 977.53711 702.24219 C 1093.734 700.96555 1237.6123 788.94645 1237.0312 871.84375 C 1236.5267 945.00956 1135.9854 1004.239 978.43164 1003.1152 C 824.14207 1001.2729 720.24422 928.68054 720.60352 857.78516 C 720.90452 800.34618 842.68875 701.97402 971.40234 702.16602 z M 591.89453 751.50586 C 614.81131 751.63086 638.36802 753.68169 662.36719 757.73438 C 743.20811 771.31871 274.98207 1180.1698 267.76562 1088.9629 C 261.20232 877.08514 405.28648 750.48803 591.89453 751.50586 z M 1339.0488 758.48633 C 1525.6487 757.46876 1669.7449 884.04423 1663.1816 1095.9355 C 1655.9652 1187.1501 1187.7468 778.29722 1268.5801 764.71289 C 1292.5776 760.66105 1316.1331 758.61129 1339.0488 758.48633 z M 1263.7578 1012.3438 C 1356.9788 1012.9735 1454.7291 1066.0924 1516.6973 1159.8672 C 1608.2711 1298.4396 1587.0435 1473.3143 1469.2871 1550.4629 C 1351.5307 1627.6191 1181.8375 1577.8244 1090.2637 1439.252 C 998.69745 1300.6872 1019.9251 1125.8029 1137.6738 1048.6543 C 1174.4751 1024.5454 1216.3476 1012.8336 1259.3223 1012.3535 C 1260.7995 1012.337 1262.2781 1012.3338 1263.7578 1012.3438 z M 693.76562 1026.3105 C 695.24529 1026.3005 696.72395 1026.3038 698.20117 1026.3203 C 741.17496 1026.8001 783.04684 1038.5122 819.8457 1062.6211 C 937.60206 1139.7773 958.8297 1314.652 867.25586 1453.2168 C 775.68202 1591.7892 605.98878 1641.5861 488.23242 1564.4375 C 370.47606 1487.2812 349.25606 1312.4046 440.82227 1173.8398 C 502.79557 1080.0599 600.54648 1026.9407 693.76562 1026.3105 z M 1689.2422 1180.2852 C 1692.8087 1180.2261 1696.5753 1180.7107 1700.5488 1181.7754 C 1911.5073 1302.2379 1874.8592 1570.2943 1761.0703 1661.8223 C 1660.8572 1706.3376 1578.6807 1182.1162 1689.2422 1180.2852 z M 242.61328 1187.2637 C 353.16174 1189.0864 271.00023 1713.2868 170.78711 1668.7715 C 56.99826 1577.2512 20.35011 1309.226 231.30859 1188.7559 C 235.2816 1187.6909 239.0472 1187.2049 242.61328 1187.2637 z M 982.78906 1547.8027 C 1139.7466 1547.0383 1267.6472 1663.7485 1268.4805 1808.4824 L 1268.4805 1811.2422 C 1269.3061 1955.9761 1142.735 2073.9229 985.78516 2074.6797 C 828.82763 2075.4441 700.91936 1958.7359 700.09375 1814.002 A 166.03922 166.03922 0 0 1 700.09375 1811.2422 C 699.26814 1666.5159 825.83155 1548.5672 982.78906 1547.8027 z M 1616.5762 1646.6934 C 1637.2189 1646.9541 1656.5788 1653.2808 1674.1445 1666.8672 C 1724.5984 1717.1376 1754.1901 1906.4537 1665.8652 2019.8145 C 1544.2255 2188.5981 1379.5466 2195.1721 1318.1992 2148.1582 C 1254.0463 2087.6441 1303.0183 1899.7581 1390.9688 1796.748 L 1390.9688 1796.7168 C 1468.0156 1709.7201 1549.1434 1645.8417 1616.5762 1646.6934 z M 332.20508 1686.8203 C 404.63362 1687.6644 492.41563 1744.9225 563.83789 1827.793 L 563.83008 1827.793 C 645.11438 1925.7194 682.17546 2097.7668 614.33789 2148.4883 C 550.16205 2187.2078 394.31223 2171.2612 283.54297 2012.125 C 208.83296 1878.5903 218.45729 1742.7088 270.91406 1702.7891 C 289.29856 1691.591 310.03308 1686.5619 332.20508 1686.8203 z M 1001.8262 2155.6895 C 1113.7307 2155.0459 1252.9156 2195.4528 1253.207 2248.2559 C 1255.1029 2302.0428 1114.2668 2423.5754 977.96484 2421.2285 C 836.80093 2427.3212 698.38161 2305.5984 700.19336 2263.4082 C 698.07582 2201.5487 872.07307 2153.2498 985.5332 2156.0859 C 990.88497 2155.8523 996.32264 2155.7211 1001.8262 2155.6895 z "
     transform="scale(0.13081247)"
     id="path3713" />
  <path
     style="fill:#ffffff;fill-opacity:1;stroke-width:6.59614563"
     d="m 518.23714,677.41697 c 7.75197,-14.4847 -1.82578,-20.44779 -32.84266,-20.44779 -10.40836,0 -33.93155,-3.21848 -52.27375,-7.15218 l -33.34947,-7.15218 14.88539,-12.14622 c 11.88633,-9.69902 12.89194,-12.77315 4.99119,-15.2579 -76.06654,-23.92262 -115.59407,-44.04141 -86.52846,-44.04141 22.23662,0 22.54433,-12.69626 0.60097,-24.79709 -11.45134,-6.31494 -34.6477,-20.21993 -51.54743,-30.89998 -24.8578,-15.70926 -28.20699,-19.87771 -17.5345,-21.82367 30.70927,-5.59936 29.88049,-9.06304 -9.19753,-38.43851 -49.58587,-37.27437 -52.8772,-42.34824 -27.47056,-42.34824 11.09775,0 20.17772,-2.14013 20.17772,-4.75585 0,-2.6157 -17.06752,-22.29533 -37.92783,-43.73249 -30.50417,-31.3477 -34.81419,-38.22956 -22.02009,-35.15969 8.74926,2.09934 21.67844,0.72859 28.73152,-3.0461 11.83362,-6.33317 10.22338,-9.26627 -20.85486,-37.98766 -38.59242,-35.66573 -41.95659,-45.74814 -13.89019,-41.62886 17.24026,2.53033 19.7782,0.89679 19.70898,-12.68566 -0.0437,-8.57449 -7.46436,-28.5081 -16.49036,-44.2969 -9.026,-15.7888 -16.41091,-29.88806 -16.41091,-31.33169 0,-1.44363 19.05096,-2.62478 42.33546,-2.62478 23.2845,0 47.19165,-1.86349 53.12699,-4.14109 9.49373,-3.64309 9.0237,-6.02286 -3.9084,-19.78844 l -14.69991,-15.64734 h 29.39497 c 16.16723,0 45.11964,4.07892 64.33868,9.06428 29.74393,7.71547 35.46609,7.70297 38.45424,-0.084 1.93078,-5.03156 -0.15327,-13.56288 -4.63124,-18.9585 -6.73599,-8.116373 -5.90551,-9.810219 4.80987,-9.810219 7.12339,0 27.52263,4.420269 45.33164,9.822819 17.80902,5.40255 34.60623,9.85495 37.32714,9.89422 7.88517,0.1138 5.72285,-22.898982 -2.96827,-31.590101 -14.47474,-14.474738 10.49222,-9.005015 50.10796,10.977575 33.15305,16.722746 38.08242,17.669856 42.91316,8.245186 3.00171,-5.856277 4.12725,-14.358104 2.50122,-18.892954 -4.77752,-13.324026 4.27046,-9.712747 38.35752,15.309464 32.82875,24.09851 42.84455,24.44519 51.23143,1.77331 4.3732,-11.821904 7.38785,-10.596103 36.1031,14.68007 17.23231,15.16848 32.548,26.36251 34.03489,24.87562 1.48689,-1.48688 5.25629,-9.60445 8.37644,-18.03903 5.48146,-14.81781 6.87534,-14.07583 41.28237,21.97504 l 35.60935,37.31066 10.8907,-14.43813 10.89069,-14.43813 27.15185,34.34966 c 58.72852,74.29713 86.71821,168.35878 67.46115,226.70838 -8.06761,24.44495 -53.08202,70.64893 -68.83011,70.64893 -4.93247,0 -20.50736,-9.18927 -34.61077,-20.42061 C 769.30681,431.54636 684.32889,377.53521 617.5322,341.84324 531.56288,295.9066 353.68638,222.8359 353.68638,233.4568 c 0,2.81805 19.75212,14.86394 43.89359,26.76864 62.67174,30.90483 200.64459,114.7322 264.97269,160.98793 66.77034,48.01185 133.07547,108.4481 133.07547,121.29654 0,17.83113 -25.62419,59.65586 -49.26588,80.41353 -47.04741,41.30818 -121.77247,66.7376 -196.67262,66.92897 -35.45984,0.0906 -37.68531,-0.7893 -31.45249,-12.43544 z"
     id="path3124"
     inkscape:connector-curvature="0"
     transform="scale(0.13081247)" />
  <path
     style="fill:#ffffff;fill-opacity:1;stroke-width:6.59614563"
     d="M 1333.214,680.68069 C 1253.9241,661.09362 1188.557,612.6796 1171.4612,560.87894 l -8.4415,-25.57789 42.2175,-38.23183 c 75.5647,-68.43074 228.8709,-169.71718 357.1684,-235.97423 24.4748,-12.63958 44.5106,-25.07423 44.524,-27.63256 0.023,-4.36609 -33.5171,7.17457 -118.7062,40.84521 -102.9766,40.70104 -263.4876,131.38981 -334.2155,188.8318 -15.122,12.28147 -31.1673,22.32996 -35.6561,22.32996 -17.0404,0 -54.3745,-36.03487 -67.0706,-64.73662 -25.3603,-57.33114 -1.4128,-146.94375 61.556,-230.34538 26.2631,-34.78525 38.9828,-43.01437 38.9828,-25.22035 0,21.13202 13.9875,15.24915 47.1736,-19.8403 l 34.9174,-36.92001 5.6772,17.03155 c 3.1225,9.36735 8.3947,17.03154 11.7161,17.03154 3.3214,0 18.2733,-11.87306 33.2264,-26.38458 30.3435,-29.447338 38.7891,-32.404469 38.7891,-13.58158 0,19.23173 11.7606,22.7459 30.7992,9.20303 52.4037,-37.276891 63.8727,-42.338525 57.336,-25.304108 -2.0882,5.44182 -2.1182,14.268398 -0.067,19.614628 3.1114,8.10823 8.972,7.05682 35.3355,-6.339407 17.383,-8.832894 40.5102,-18.103933 51.3938,-20.602308 l 19.7885,-4.5425 -12.7067,14.335834 c -19.1815,21.640971 -6.1351,28.618121 32.0332,17.131161 42.2616,-12.718873 60.8437,-12.955621 50.6269,-0.64502 -4.1347,4.98199 -5.7876,13.56675 -3.673,19.07723 3.3822,8.81371 7.9588,8.92372 38.0417,0.91434 18.8083,-5.0076 47.3295,-9.13995 63.3803,-9.18301 l 29.1835,-0.0783 -14.6999,15.64734 c -12.9322,13.76558 -13.4021,16.14535 -3.9084,19.78844 5.9353,2.2776 29.8424,4.14109 53.127,4.14109 23.2844,0 42.3354,1.2102 42.3354,2.68934 0,1.47913 -7.7824,17.68954 -17.2942,36.02313 -21.0967,40.6631 -17.6073,56.986 10.9607,51.27238 17.9082,-3.58164 19.1953,-2.75016 13.1701,8.5081 -3.6728,6.86273 -18.5866,22.67115 -33.1418,35.12983 -36.8531,31.54487 -34.1913,42.68589 9.0945,38.06463 11.6052,-1.23899 11.4518,-0.031 -2.207,17.37983 -8.0734,10.29124 -24.8168,27.09018 -37.2075,37.33097 -28.0648,23.19531 -28.2779,29.46128 -1.0911,32.08258 l 21.4375,2.06696 -41.2259,32.39013 c -22.6743,17.81457 -41.2259,34.69403 -41.2259,37.50991 0,2.81589 9.6468,6.04992 21.4375,7.18675 20.6934,1.99521 19.5529,3.18287 -32.8624,34.22011 -54.6698,32.37227 -62.1226,43.50551 -29.4117,43.93625 l 17.7501,0.23374 -16.4904,9.41874 c -9.0697,5.18031 -35.5857,15.88699 -58.9244,23.7926 -42.1017,14.2613 -42.322,14.46455 -28.1291,25.95726 18.1248,14.67658 11.0285,17.90868 -52.2271,23.78768 -48.4223,4.50037 -58.166,10.04432 -45.1717,25.70159 6.8543,8.25885 1.6173,9.52664 -37.3599,9.04431 -24.9324,-0.30854 -60.173,-4.22725 -78.3124,-8.70825 z"
     id="path3126"
     inkscape:connector-curvature="0"
     transform="scale(0.13081247)" />
  <path
     style="fill:#ffffff;fill-opacity:1;stroke-width:6.59614563"
     d="M 890.36167,990.54638 C 774.2919,964.06779 701.19686,889.90129 732.15981,830.02555 758.4443,779.19694 849.6888,723.34934 928.96334,709.56892 c 82.13226,-14.27718 191.19586,18.4101 255.61666,76.61044 34.5925,31.25224 46.3937,53.97968 46.3937,89.34768 0,24.82376 -3.6139,31.40817 -32.5439,59.29292 -24.7967,23.90085 -43.2469,34.75463 -77.5047,45.59391 -57.9186,18.32566 -172.56313,23.36393 -230.56343,10.13251 z"
     id="path3128"
     inkscape:connector-curvature="0"
     transform="scale(0.13081247)" />
  <path
     style="fill:#ffffff;fill-opacity:1;stroke-width:6.59614563"
     d="m 270.58215,1089.6951 c -1.94504,-5.0687 -0.49944,-31.041 3.21245,-57.7163 12.43912,-89.39279 38.76787,-143.10979 95.60363,-195.05448 63.33596,-57.88549 139.42681,-83.74693 235.3368,-79.98526 31.83796,1.2487 59.83386,4.22073 62.21314,6.6045 25.36104,25.40899 -226.61554,261.50594 -341.07612,319.58144 -35.50852,18.0164 -50.2264,19.7654 -55.2899,6.5701 z"
     id="path3130"
     inkscape:connector-curvature="0"
     transform="scale(0.13081247)" />
  <path
     style="fill:#ffffff;fill-opacity:1;stroke-width:6.59614563"
     d="M 564.57996,1591.3297 C 442.0607,1564.6888 368.84721,1444.51 392.17539,1308.3302 c 29.33518,-171.2462 187.43556,-298.5324 340.78936,-274.3687 135.45574,21.3436 216.55314,163.5937 177.89018,312.0308 -42.49383,163.1448 -202.59744,276.5789 -346.27497,245.3374 z"
     id="path3132"
     inkscape:connector-curvature="0"
     transform="scale(0.13081247)" />
  <path
     style="fill:#ffffff;fill-opacity:1;stroke-width:6.59614563"
     d="m 149.92968,1642.9095 c -77.548993,-88.3234 -88.345955,-239.8856 -24.812,-348.2981 20.37401,-34.7656 84.65316,-95.1525 107.34905,-100.8488 38.74852,-9.7253 58.02662,36.9395 57.55229,139.3115 -0.75197,162.2902 -55.69762,333.1053 -107.14911,333.1053 -6.87994,0 -21.70304,-10.4714 -32.94023,-23.2699 z"
     id="path3134"
     inkscape:connector-curvature="0"
     transform="scale(0.13081247)" />
  <path
     style="fill:#ffffff;fill-opacity:1;stroke-width:6.59614563"
     d="m 469.11893,2151.9656 c -52.37316,-17.2501 -86.63268,-39.8628 -135.94838,-89.7317 -43.71904,-44.2095 -52.98416,-57.9337 -71.78002,-106.3264 -41.22565,-106.1416 -34.13908,-220.3861 15.54995,-250.6849 58.29107,-35.5442 152.44594,-1.7612 246.35071,88.3912 85.62344,82.2019 125.2235,173.7324 119.44077,276.0723 -2.28937,40.5162 -4.7703,47.4346 -23.85331,66.5176 -19.93266,19.9327 -24.57049,21.3993 -72.33667,22.8752 -28.94304,0.8942 -62.4608,-2.1852 -77.42305,-7.1133 z"
     id="path3136"
     inkscape:connector-curvature="0"
     transform="scale(0.13081247)" />
  <path
     style="fill:#ffffff;fill-opacity:1;stroke-width:6.59614563"
     d="m 897.86839,2059.6677 c -90.92045,-29.9612 -156.29815,-93.5476 -182.39527,-177.3979 -38.07998,-122.3511 22.92735,-247.1572 149.87538,-306.6083 35.95129,-16.8364 45.5201,-18.3185 118.26978,-18.3185 75.29002,0 81.31852,1.0255 123.50182,21.0086 59.1044,27.999 105.5074,72.4417 132.1563,126.5734 19.5813,39.7751 21.38,48.7241 21.38,106.3696 0,57.6455 -1.7987,66.5946 -21.38,106.3697 -26.6915,54.2183 -73.1572,98.6711 -132.1563,126.4316 -39.7443,18.7006 -51.5379,21.0432 -113.6076,22.5665 -44.03282,1.0807 -78.86971,-1.467 -95.64411,-6.9947 z"
     id="path3138"
     inkscape:connector-curvature="0"
     transform="scale(0.13081247)" />
  <path
     style="fill:#ffffff;fill-opacity:1;stroke-width:6.59614563"
     d="m 895.31123,2407.7145 c -77.45356,-20.8299 -178.6665,-94.3267 -189.27855,-137.4466 -13.6737,-55.5603 127.84889,-109.3775 287.62884,-109.3775 115.71458,0 221.90638,29.721 247.89208,69.3801 11.3724,17.3566 11.2609,18.6754 -4.0149,47.4705 -27.7833,52.372 -121.9506,115.7468 -198.0366,133.2791 -40.957,9.4376 -102.0112,8.0379 -144.19087,-3.3056 z"
     id="path3140"
     inkscape:connector-curvature="0"
     transform="scale(0.13081247)" />
  <path
     style="fill:#ffffff;fill-opacity:1;stroke-width:6.59614563"
     d="m 1342.7745,2157.4681 c -66.4155,-28.7319 -67.2589,-141.3793 -2.0487,-273.6159 26.4401,-53.6164 40.0324,-71.7335 94.1466,-125.4877 95.498,-94.8624 167.0729,-125.3612 224.5028,-95.6631 54.0063,27.9278 76.4813,181.3899 41.2468,281.6383 -26.9826,76.7705 -99.5747,156.2763 -178.1383,195.1045 -41.3686,20.4455 -55.9819,24.161 -102.2768,26.0047 -38.0699,1.5161 -60.9249,-0.8395 -77.4324,-7.9808 z"
     id="path3142"
     inkscape:connector-curvature="0"
     transform="scale(0.13081247)" />
  <path
     style="fill:#ffffff;fill-opacity:1;stroke-width:6.59614563"
     d="m 1721.0099,1644.742 c -63.8087,-69.7841 -105.1023,-346.7234 -64.1971,-430.5445 17.2317,-35.3104 34.1474,-36.7823 75.3259,-6.5545 60.6507,44.5217 100.4876,111.5478 113.7045,191.3092 12.7765,77.1037 -12.2095,172.9045 -61.242,234.8131 -23.5827,29.7756 -43.2914,33.1776 -63.5913,10.9767 z"
     id="path3144"
     inkscape:connector-curvature="0"
     transform="scale(0.13081247)" />
  <path
     style="fill:#ffffff;fill-opacity:1;stroke-width:6.59614563"
     d="m 1267.2525,1571.1808 c -98.3537,-31.1869 -183.9576,-119.9847 -215.3711,-223.4068 -19.8183,-65.2473 -15.6487,-152.3343 9.7823,-204.3133 44.0975,-90.1321 143.5378,-141.8293 238.9013,-124.2004 116.6378,21.5616 218.7481,115.0642 254.6163,233.1524 17.7714,58.5086 14.8578,150.0299 -6.2889,197.5431 -20.1232,45.2137 -64.1261,89.8296 -110.1401,111.6745 -33.6703,15.9847 -47.4523,18.7238 -92.346,18.3528 -29.0231,-0.2398 -64.6422,-4.2009 -79.1538,-8.8023 z"
     id="path3146"
     inkscape:connector-curvature="0"
     transform="scale(0.13081247)" />
  <path
     style="fill:#ffffff;fill-opacity:1;stroke-width:6.59614563"
     d="m 1615.4801,1095.7912 c -105.6691,-45.948 -376.1883,-297.62749 -349.0627,-324.75303 10.5626,-10.56267 109.1225,-9.97707 158.1922,0.93991 51.0963,11.36785 111.2349,42.85547 146.2375,76.56768 50.1016,48.25467 87.7171,141.35559 88.4959,219.03344 0.4248,42.3761 -4.3001,45.4151 -43.8629,28.212 z"
     id="path3148"
     inkscape:connector-curvature="0"
     transform="scale(0.13081247)" />
  <path
     style="fill:#ffffff;fill-opacity:1;stroke-width:6.59614563"
     d="M 890.36167,990.54638 C 774.2919,964.06779 701.19686,889.90129 732.15981,830.02555 758.90936,778.29762 851.07515,722.55322 931.92712,709.20081 c 82.20138,-13.57528 183.83698,16.60782 248.96548,73.93621 37.6877,33.17397 50.0811,56.03757 50.0811,92.39002 0,24.82376 -3.6139,31.40817 -32.5439,59.29292 -24.7967,23.90085 -43.2469,34.75463 -77.5047,45.59391 -57.9186,18.32566 -172.56313,23.36393 -230.56343,10.13251 z"
     id="path3150"
     inkscape:connector-curvature="0"
     transform="scale(0.13081247)" />
</svg>
