<?xml version="1.0" encoding="UTF-8" standalone="no"?>
<svg
   xmlns:dc="http://purl.org/dc/elements/1.1/"
   xmlns:cc="http://creativecommons.org/ns#"
   xmlns:rdf="http://www.w3.org/1999/02/22-rdf-syntax-ns#"
   xmlns:svg="http://www.w3.org/2000/svg"
   xmlns="http://www.w3.org/2000/svg"
   xmlns:sodipodi="http://sodipodi.sourceforge.net/DTD/sodipodi-0.dtd"
   xmlns:inkscape="http://www.inkscape.org/namespaces/inkscape"
   enable-background="new 0 0 55 28"
   height="28"
   version="1.1"
   viewBox="0 0 55 28"
   width="55"
   x="0px"
   xml:space="preserve"
   y="0px"
   id="svg3481"
   inkscape:version="0.92.2 (5c3e80d, 2017-08-06)"
   sodipodi:docname="soas.svg"><metadata
     id="metadata3494"><rdf:RDF><cc:Work
         rdf:about=""><dc:format>image/svg+xml</dc:format><dc:type
           rdf:resource="http://purl.org/dc/dcmitype/StillImage" /></cc:Work></rdf:RDF></metadata><defs
     id="defs3492" /><sodipodi:namedview
     pagecolor="#ffffff"
     bordercolor="#666666"
     borderopacity="1"
     objecttolerance="10"
     gridtolerance="10"
     guidetolerance="10"
     inkscape:pageopacity="0"
     inkscape:pageshadow="2"
     inkscape:window-width="1366"
     inkscape:window-height="705"
     id="namedview3490"
     showgrid="false"
     inkscape:zoom="14.399265"
     inkscape:cx="25.486746"
     inkscape:cy="9.3877828"
     inkscape:window-x="-8"
     inkscape:window-y="-8"
     inkscape:window-maximized="1"
     inkscape:current-layer="svg3481" /><path
     style="fill:#000000;fill-opacity:1;stroke:#000000;stroke-width:0.04222438;stroke-miterlimit:4;stroke-dasharray:none;stroke-opacity:1"
     d="M 6.5728521,25.188162 C 3.527033,24.450667 0.88367456,21.672411 0.22285689,18.514112 -0.05863273,17.168766 -0.06579931,11.111152 0.21237859,9.6572467 0.72987132,6.9525563 2.4848658,4.6682975 4.949395,3.4916591 6.8656677,2.5767744 5.8920622,2.6155953 26.987271,2.6129351 l 19.125044,-0.00241 0.216221,0.3086971 c 0.159904,0.2282965 0.216219,0.6624049 0.216219,1.6667517 v 1.3580546 l 3.99326,0.00213 c 2.272394,0.00121 4.083043,0.058859 4.201603,0.1337748 0.180169,0.1138442 0.213517,1.1375005 0.246596,7.5694117 0.02104,4.09077 -0.01416,7.64013 -0.07823,7.887468 l -0.116481,0.449704 -4.123376,0.03679 -4.123376,0.03679 V 23.3685 c 0,0.719621 -0.06095,1.468731 -0.135458,1.664685 l -0.135458,0.356282 -19.483599,-0.01181 C 11.474055,25.368365 7.1496891,25.327835 6.5728521,25.188162 Z M 45.260869,14.034717 45.296495,3.8605872 H 26.50437 c -16.417078,0 -18.8967504,0.026866 -19.6199582,0.2125732 -2.6558048,0.6819645 -4.7805232,2.8421654 -5.4062007,5.4964838 -0.2994157,1.2702148 -0.2982548,7.5953778 0.00163,8.8676738 0.7293514,3.094384 3.1679591,5.298911 6.311887,5.706009 0.4207387,0.05448 9.0154011,0.09151 19.0992491,0.08229 l 18.334269,-0.01677 z m 9.062061,-0.03472 V 7.1940906 h -3.889087 -3.889088 v 6.8059024 6.805903 h 3.889088 3.889087 z"
     id="path2227"
     inkscape:connector-curvature="0" /><g
     id="g6359"
     transform="matrix(0.05483555,0,0,0.05483566,11.666645,-5.4785624)"
     style="fill:#ffffff;fill-opacity:1;stroke:#000000;stroke-opacity:1"><circle
       r="51.220825"
       cy="134.2677"
       cx="331.38321"
       transform="matrix(0.969697,0,0,0.969697,-90.879133,125.06999)"
       id="path2307"
       style="fill:#ffffff;fill-opacity:1;stroke:#000000;stroke-width:20.62502098;stroke-linecap:round;stroke-linejoin:round;stroke-miterlimit:4;stroke-dasharray:none;stroke-dashoffset:0;stroke-opacity:1" /><path
       sodipodi:nodetypes="ccccccccccccc"
       id="path5343"
       d="m 290.55846,302.47333 -58.81513,59.20058 -59.39461,-59.40024 c -25.19828,-24.48771 -62.7038,13.33148 -38.1941,37.98719 l 60.04451,58.9817 -59.73639,59.42563 c -24.83976,24.97559 12.91592,63.26505 37.66786,37.75282 l 59.95799,-59.28294 58.75912,59.21065 c 24.50656,25.09065 62.43116,-13.00322 37.87956,-37.85772 l -59.24184,-59.02842 58.87574,-59.14782 c 25.1689,-25.18348 -13.0489,-62.75154 -37.80271,-37.84143 z"
       style="fill:#ffffff;fill-opacity:1;stroke:#000000;stroke-width:20.00002098;stroke-linecap:round;stroke-linejoin:miter;stroke-miterlimit:4;stroke-dasharray:none;stroke-dashoffset:0;stroke-opacity:1"
       inkscape:connector-curvature="0" /></g><path
     style="fill:#ffffff;fill-opacity:1;stroke:#000000;stroke-width:0.02111219;stroke-miterlimit:4;stroke-dasharray:none;stroke-opacity:1"
     d="M 10.013734,24.111528 C 7.6397689,24.073395 7.3619342,24.05651 6.8723703,23.920614 4.0563271,23.138921 2.0476744,20.996126 1.4861546,18.174695 1.3363753,17.422109 1.3149569,10.844237 1.459517,9.9939293 1.7631047,8.2082146 2.8032133,6.5254669 4.2957587,5.4052934 5.3536184,4.6113568 6.4713005,4.1496048 7.6177782,4.0328556 8.0600622,3.9878166 15.014365,3.9490181 26.768061,3.926015 l 18.455803,-0.03612 -7.1e-5,6.44792 c -3.9e-5,3.546356 -0.02078,8.112068 -0.04608,10.146026 l -0.04601,3.698105 -16.256832,-0.01429 c -8.941257,-0.0079 -17.428765,-0.03312 -18.86113,-0.05613 z M 20.922095,22.58472 c 0.194828,-0.09772 0.882878,-0.726101 1.877922,-1.715066 l 1.570433,-1.560839 1.554726,1.566466 c 1.752517,1.765749 1.911366,1.875739 2.702372,1.871178 0.801884,-0.0046 1.487027,-0.445289 1.853912,-1.192387 0.260275,-0.530005 0.272036,-1.276547 0.02753,-1.747349 -0.09977,-0.192115 -0.753885,-0.907835 -1.697823,-1.857734 l -1.53552,-1.545218 1.53552,-1.545218 c 0.943938,-0.949899 1.59805,-1.665619 1.697823,-1.857733 0.240933,-0.463918 0.230551,-1.223119 -0.02337,-1.708949 -0.502536,-0.961515 -1.555067,-1.4174221 -2.524572,-1.093527 -0.296189,0.09895 -0.559464,0.329747 -1.956262,1.714922 l -1.614013,1.600583 -1.580594,-1.565476 c -1.435781,-1.422047 -1.618772,-1.5798 -1.997283,-1.721821 -0.992723,-0.3724789 -2.085609,0.09079 -2.612689,1.107516 -0.127595,0.246127 -0.161982,0.423164 -0.161871,0.833376 2.08e-4,0.794759 0.119848,0.967306 1.901565,2.742623 l 1.532788,1.527282 -1.556086,1.563153 c -0.924744,0.928943 -1.61357,1.678816 -1.697766,1.848232 -0.817119,1.644158 1.070695,3.554828 2.703258,2.735986 z m 4.183152,-10.86811 c 0.975838,-0.254173 1.742575,-0.892613 2.185169,-1.8195262 0.254714,-0.5334434 0.258935,-0.5559541 0.258935,-1.3808951 V 7.6775771 L 27.25436,7.0822605 C 26.565363,5.6918053 25.121788,4.9851872 23.611596,5.2991566 c -1.678798,0.3490225 -2.85862,2.0746579 -2.560186,3.7445902 0.09782,0.5473836 0.448431,1.3005192 0.766739,1.6470202 0.858998,0.935082 2.122125,1.32928 3.287098,1.025843 z"
     id="path2884"
     inkscape:connector-curvature="0" /><path
     style="fill:#ffffff;fill-opacity:1;stroke:#000000;stroke-width:0.02111219;stroke-miterlimit:4;stroke-dasharray:none;stroke-opacity:1"
     d="M 46.612824,14.007816 V 7.2366367 h 3.819639 3.81964 v 6.7711793 6.771178 h -3.81964 -3.819639 z"
     id="path2886"
     inkscape:connector-curvature="0" /></svg>