<?xml version="1.0" encoding="UTF-8" standalone="no"?>
<svg
   xmlns:dc="http://purl.org/dc/elements/1.1/"
   xmlns:cc="http://creativecommons.org/ns#"
   xmlns:rdf="http://www.w3.org/1999/02/22-rdf-syntax-ns#"
   xmlns:svg="http://www.w3.org/2000/svg"
   xmlns="http://www.w3.org/2000/svg"
   xmlns:sodipodi="http://sodipodi.sourceforge.net/DTD/sodipodi-0.dtd"
   xmlns:inkscape="http://www.inkscape.org/namespaces/inkscape"
   enable-background="new 0 0 55 28"
   height="28"
   version="1.1"
   viewBox="0 0 55 28"
   width="55"
   x="0px"
   xml:space="preserve"
   y="0px"
   id="svg3481"
   inkscape:version="0.92.2 (5c3e80d, 2017-08-06)"
   sodipodi:docname="soas.svg"><metadata
     id="metadata3494"><rdf:RDF><cc:Work
         rdf:about=""><dc:format>image/svg+xml</dc:format><dc:type
           rdf:resource="http://purl.org/dc/dcmitype/StillImage" /><dc:title /></cc:Work></rdf:RDF></metadata><defs
     id="defs3492" /><sodipodi:namedview
     pagecolor="#ffffff"
     bordercolor="#666666"
     borderopacity="1"
     objecttolerance="10"
     gridtolerance="10"
     guidetolerance="10"
     inkscape:pageopacity="0"
     inkscape:pageshadow="2"
     inkscape:window-width="1366"
     inkscape:window-height="705"
     id="namedview3490"
     showgrid="false"
     inkscape:zoom="7.1996326"
     inkscape:cx="19.642268"
     inkscape:cy="16.279802"
     inkscape:window-x="-8"
     inkscape:window-y="-8"
     inkscape:window-maximized="1"
     inkscape:current-layer="media-flash-usb" /><g
     display="block"
     id="media-flash-usb"
     transform="matrix(1.0487747,0,0,1.0144329,-2.2150122,-15.134701)"
     style="display:block"><path
       id="path5160"
       d="m 33.950307,18.34704 c 0.0063,0 0.01884,0 0.0314,0 h 2.95776 2.982879 v 3.189218 14.361306 3.189218 h -2.982879 -2.951481 c -0.0063,0 -0.01884,0.0065 -0.03768,0.0065 H 5.7982104 c -2.0346374,0 -3.6862103,-1.722309 -3.6862103,-3.83754 V 22.191128 c 0,-2.128328 1.6515729,-3.844088 3.6862103,-3.844088 H 33.950307 m -0.175833,2.567091 H 5.8044901 c -0.6719327,0 -1.2245503,0.569738 -1.2245503,1.276997 v 13.064663 c 0,0.70726 0.5463379,1.276997 1.2245503,1.276997 H 33.856111 c 0.05024,-0.0065 0.08792,-0.0065 0.138154,-0.0065 h 2.95148 0.521219 V 35.904112 21.536258 20.914131 h -0.521219 -2.964039 -0.182113 z"
       inkscape:connector-curvature="0"
       style="stroke-width:0.06412814" /><path
       id="path5162"
       d="M 54.554151,35.838625 V 21.601745 H 42.848706 v 14.23688 z m -3.899722,-8.140038 h -2.926361 v -3.038598 h 2.926361 z m 0,5.081794 h -2.926361 v -3.051696 h 2.926361 z"
       inkscape:connector-curvature="0"
       style="stroke-width:0.06412814" /><g
       transform="matrix(0.13055751,0,0,0.1349773,4.9949541,6.3484978)"
       id="g838"><ellipse
         ry="15.083975"
         rx="15.083944"
         id="path2307"
         style="fill:#ff2b34;fill-opacity:0;stroke:#000000;stroke-width:3.02362204;stroke-linecap:round;stroke-linejoin:round;stroke-miterlimit:4;stroke-dasharray:none;stroke-dashoffset:0;stroke-opacity:1"
         cx="120.03799"
         cy="135.39032" /><path
         sodipodi:nodetypes="ccccccccccccc"
         id="path5343"
         d="m 138.28871,149.72589 -17.86164,17.97874 -18.03763,-18.03937 c -7.652494,-7.43672 -19.042593,4.04866 -11.599211,11.5364 L 109.02522,179.11392 90.883802,197.161 c -7.543618,7.58489 3.922452,19.21308 11.439398,11.46523 l 18.20872,-18.00375 17.84463,17.98179 c 7.44243,7.61983 18.9598,-3.94897 11.50369,-11.49708 l -17.99123,-17.92645 17.88005,-17.96271 c 7.64358,-7.64802 -3.96284,-19.05713 -11.48035,-11.49214 z"
         style="fill:#ff2b34;fill-opacity:0;stroke:#000000;stroke-width:3.02362204;stroke-linecap:round;stroke-linejoin:miter;stroke-miterlimit:4;stroke-dasharray:none;stroke-dashoffset:0;stroke-opacity:1"
         inkscape:connector-curvature="0" /></g><path
       style="fill:#ffffff;fill-opacity:1;stroke-width:0.13889597"
       d="M 3.3213002,21.720506 C 3.1544103,21.653265 2.951275,21.473825 2.8698882,21.321753 2.770721,21.136458 2.7219124,18.703665 2.7219124,13.946118 V 6.8469787 L 3.0628389,6.5060522 3.4037654,6.1651257 H 20.216493 37.029219 v 7.8476223 7.847623 l -16.702241,-0.0088 C 11.053651,21.846679 3.4897723,21.788384 3.3213002,21.720506 Z M 18.158822,19.1259 19.528326,17.780389 20.897829,19.1259 c 1.460091,1.434512 1.716726,1.552341 2.49944,1.147585 0.443821,-0.229509 0.714624,-0.743833 0.714624,-1.357251 0,-0.35763 -0.223316,-0.657541 -1.312752,-1.763008 l -1.31275,-1.33207 1.31275,-1.336159 c 1.170488,-1.19136 1.312752,-1.390714 1.312752,-1.839561 0,-0.764608 -0.626415,-1.404294 -1.375161,-1.404294 -0.53441,0 -0.652836,0.08228 -1.886075,1.310391 l -1.315862,1.310391 -1.293975,-1.268956 c -0.734029,-0.719837 -1.463031,-1.311386 -1.684643,-1.367008 -0.902907,-0.226615 -1.890039,0.791335 -1.659699,1.711514 0.05636,0.225172 0.626866,0.888692 1.395965,1.623576 l 1.300645,1.242781 -1.239437,1.257346 c -1.497203,1.518837 -1.620626,1.726957 -1.407365,2.373144 0.206305,0.62511 0.745039,1.03709 1.356172,1.03709 0.428796,0 0.650192,-0.160469 1.856364,-1.345511 z m 2.582021,-7.355974 c 0.662226,-0.494423 0.919183,-0.971896 0.978389,-1.8180184 0.04684,-0.6693722 0.0023,-0.8796188 -0.2721,-1.283349 -1.025093,-1.5084605 -2.952576,-1.5153569 -3.964216,-0.014184 -0.719862,1.0682017 -0.213161,2.7315924 1.00369,3.2949034 0.573228,0.265361 1.788049,0.168707 2.254237,-0.179352 z"
       id="path1991"
       inkscape:connector-curvature="0"
       transform="matrix(0.95349363,0,0,0.98577244,2.112,14.919371)" /><path
       style="fill:#ffffff;fill-opacity:1;stroke-width:0.13889597"
       d="m 15.75134,19.67276 c -0.565212,-0.65815 -0.486961,-0.811934 1.265475,-2.48697 l 1.330895,-1.272113 -1.493132,-1.520015 c -0.821222,-0.836009 -1.493132,-1.625952 -1.493132,-1.75543 0,-0.304456 0.612812,-0.917267 0.917268,-0.917267 0.129478,0 0.917248,0.671895 1.750602,1.4931 l 1.515187,1.493101 1.43112,-1.493101 c 1.508739,-1.574082 1.793725,-1.724477 2.302894,-1.215308 0.469217,0.469216 0.347606,0.842956 -0.566355,1.740547 -0.464281,0.455966 -1.0991,1.130657 -1.410709,1.499313 l -0.566562,0.670285 1.410709,1.415526 c 1.491879,1.496974 1.682345,1.88583 1.156704,2.361528 -0.505531,0.4575 -0.836613,0.289723 -2.331866,-1.181685 l -1.434431,-1.411556 -1.517941,1.411556 c -0.844025,0.784872 -1.637822,1.411556 -1.787962,1.411556 -0.148511,0 -0.363954,-0.10938 -0.478764,-0.243067 z"
       id="path1993"
       inkscape:connector-curvature="0"
       transform="matrix(0.95349363,0,0,0.98577244,2.112,14.919371)" /><path
       style="fill:#ffffff;fill-opacity:1;stroke-width:0.13889597"
       d="m 18.538387,11.348208 c -1.090591,-0.676844 -1.065218,-2.435097 0.04402,-3.0506317 0.437979,-0.243041 1.29085,-0.2321458 1.783838,0.022788 1.098832,0.5682281 1.098832,2.4827817 0,3.0510097 -0.528951,0.273531 -1.366909,0.262911 -1.827861,-0.02317 z"
       id="path1995"
       inkscape:connector-curvature="0"
       transform="matrix(0.95349363,0,0,0.98577244,2.112,14.919371)" /><path
       style="fill:#ffffff;fill-opacity:1;stroke-width:0.13889597"
       d="M 47.863105,11.373725 V 9.9153172 h 1.458408 1.458408 v 1.4584078 1.458408 h -1.458408 -1.458408 z"
       id="path841"
       inkscape:connector-curvature="0"
       transform="matrix(0.95349363,0,0,0.98577244,2.112,14.919371)" /><path
       style="fill:#ffffff;fill-opacity:1;stroke-width:0.13889597"
       d="m 47.863105,16.582324 v -1.527856 h 1.458408 1.458408 v 1.527856 1.527856 h -1.458408 -1.458408 z"
       id="path843"
       inkscape:connector-curvature="0"
       transform="matrix(0.95349363,0,0,0.98577244,2.112,14.919371)" /></g></svg>